<svg xmlns="http://www.w3.org/2000/svg" viewBox="0 0 900 560" role="img" aria-labelledby="title desc">
  <title id="title">With context psychology model example</title>
  <desc id="desc">A structured psychology whiteboard showing lived experience becoming semantic knowledge that guides adaptive action, with evolution, development, social life, cognition, and disorders as explanatory layers.</desc>
  <rect width="900" height="560" fill="#fbfbf8"/>
  <rect x="24" y="24" width="852" height="512" rx="18" fill="#ffffff" stroke="#c9c9c9" stroke-width="4"/>
  <text x="52" y="68" font-size="28" font-family="Arial, sans-serif" fill="#183a6b" font-weight="700">WITH CONTEXT</text>
  <text x="52" y="102" font-size="18" font-family="Arial, sans-serif" fill="#555">The AI gets the conceptual job.</text>
  <defs><marker id="arrow" markerWidth="10" markerHeight="10" refX="9" refY="3" orient="auto"><path d="M0,0 L0,6 L9,3 z" fill="#444"/></marker></defs>
  <g font-family="Arial, sans-serif" text-anchor="middle">
    <rect x="50" y="160" width="125" height="120" rx="18" fill="#eef4ff" stroke="#2f5597" stroke-width="3"/>
    <text x="112" y="195" font-size="17" fill="#183a6b" font-weight="700">LIVED</text><text x="112" y="220" font-size="17" fill="#183a6b" font-weight="700">EXPERIENCE</text><text x="112" y="250" font-size="15" fill="#333">episodes</text>
    <rect x="220" y="160" width="125" height="120" rx="18" fill="#f0f7ed" stroke="#4f7d34" stroke-width="3"/>
    <text x="282" y="195" font-size="17" fill="#2e5a1c" font-weight="700">ATTENTION</text><text x="282" y="220" font-size="17" fill="#2e5a1c" font-weight="700">AND MEMORY</text><text x="282" y="250" font-size="15" fill="#333">select / encode</text>
    <rect x="390" y="160" width="125" height="120" rx="18" fill="#fff4e8" stroke="#c76b21" stroke-width="3"/>
    <text x="452" y="195" font-size="17" fill="#9b4511" font-weight="700">PATTERNS</text><text x="452" y="220" font-size="17" fill="#9b4511" font-weight="700">AND MEANING</text><text x="452" y="250" font-size="15" fill="#333">compress</text>
    <rect x="560" y="160" width="125" height="120" rx="18" fill="#f2efff" stroke="#5b4aa1" stroke-width="3"/>
    <text x="622" y="195" font-size="17" fill="#392d7a" font-weight="700">SEMANTIC</text><text x="622" y="220" font-size="17" fill="#392d7a" font-weight="700">KNOWLEDGE</text><text x="622" y="250" font-size="15" fill="#333">concepts</text>
    <rect x="730" y="160" width="125" height="120" rx="18" fill="#fff0f0" stroke="#b23a3a" stroke-width="3"/>
    <text x="792" y="195" font-size="17" fill="#8c1d1d" font-weight="700">ADAPTIVE</text><text x="792" y="220" font-size="17" fill="#8c1d1d" font-weight="700">ACTION</text><text x="792" y="250" font-size="15" fill="#333">behavior</text>
  </g>
  <g stroke="#444" stroke-width="6" marker-end="url(#arrow)">
    <line x1="180" y1="220" x2="212" y2="220"/><line x1="350" y1="220" x2="382" y2="220"/><line x1="520" y1="220" x2="552" y2="220"/><line x1="690" y1="220" x2="722" y2="220"/>
  </g>
  <path d="M790 304 C720 385, 210 385, 120 306" stroke="#183a6b" stroke-width="5" fill="none" marker-end="url(#arrow)"/>
  <text x="455" y="420" font-size="18" font-family="Arial, sans-serif" fill="#183a6b" text-anchor="middle" font-weight="700">Feedback loop: action creates new experience</text>
  <g font-family="Arial, sans-serif" font-size="16" fill="#333">
    <text x="70" y="475"><tspan font-weight="700" fill="#183a6b">Evolution</tspan> builds mechanisms</text>
    <text x="290" y="475"><tspan font-weight="700" fill="#4f7d34">Development</tspan> tunes the system</text>
    <text x="540" y="475"><tspan font-weight="700" fill="#c76b21">Social life</tspan> shapes inputs</text>
    <text x="70" y="510"><tspan font-weight="700" fill="#5b4aa1">Cognition</tspan> organizes meaning</text>
    <text x="390" y="510"><tspan font-weight="700" fill="#b23a3a">Errors and mismatches</tspan> can become disorders</text>
  </g>
</svg>
