<svg xmlns="http://www.w3.org/2000/svg" viewBox="0 0 900 560" role="img" aria-labelledby="title desc">
  <title id="title">Without context whiteboard example</title>
  <desc id="desc">A generic whiteboard-style image with vague diagrams, scribbles, and simplified marks, showing that the AI understood the visual genre but not the conceptual purpose.</desc>
  <rect width="900" height="560" fill="#fbfbf8"/>
  <rect x="24" y="24" width="852" height="512" rx="18" fill="#ffffff" stroke="#c9c9c9" stroke-width="4"/>
  <text x="52" y="68" font-size="28" font-family="Arial, sans-serif" fill="#183a6b" font-weight="700">WITHOUT CONTEXT</text>
  <text x="52" y="102" font-size="18" font-family="Arial, sans-serif" fill="#555">The AI gets the visual genre.</text>
  <g stroke="#2f5597" stroke-width="4" fill="none" opacity=".8">
    <path d="M70 160 C120 110, 180 200, 235 145 S350 110, 390 180"/>
    <path d="M74 230 C130 220, 150 270, 230 252 S350 230, 405 280"/>
    <path d="M86 330 C140 295, 210 370, 270 320 S350 315, 415 350"/>
  </g>
  <g fill="#f2d7d5" stroke="#c0392b" stroke-width="2" opacity=".9">
    <circle cx="505" cy="150" r="16"/><circle cx="558" cy="184" r="12"/><circle cx="610" cy="142" r="20"/><circle cx="672" cy="188" r="14"/>
    <rect x="500" y="245" width="52" height="34" rx="7"/><rect x="584" y="260" width="72" height="38" rx="8"/><rect x="698" y="248" width="44" height="44" rx="10"/>
  </g>
  <g stroke="#777" stroke-width="3" opacity=".85">
    <line x1="74" y1="425" x2="230" y2="425"/><line x1="74" y1="455" x2="320" y2="455"/><line x1="74" y1="485" x2="270" y2="485"/>
    <line x1="500" y1="420" x2="735" y2="420"/><line x1="500" y1="455" x2="690" y2="455"/><line x1="500" y1="490" x2="750" y2="490"/>
  </g>
  <g fill="#183a6b" opacity=".75">
    <circle cx="150" cy="180" r="5"/><circle cx="193" cy="260" r="5"/><circle cx="310" cy="212" r="5"/><circle cx="335" cy="336" r="5"/>
  </g>
  <defs><marker id="arrow" markerWidth="10" markerHeight="10" refX="9" refY="3" orient="auto"><path d="M0,0 L0,6 L9,3 z" fill="#444"/></marker></defs>
  <path d="M425 280 L475 280" stroke="#444" stroke-width="8" marker-end="url(#arrow)"/>
  <text x="52" y="525" font-size="20" font-family="Arial, sans-serif" fill="#222">Surface request: complex writing becomes simpler.</text>
</svg>
